<?xml version="1.0" standalone="no"?>
<!DOCTYPE svg PUBLIC "-//W3C//DTD SVG 20010904//EN"
 "http://www.w3.org/TR/2001/REC-SVG-20010904/DTD/svg10.dtd">
<svg version="1.0" xmlns="http://www.w3.org/2000/svg"
 width="1120.000000pt" height="1120.000000pt" viewBox="0 0 1120.000000 1120.000000"
 preserveAspectRatio="xMidYMid meet">
<metadata>
Created by potrace 1.14, written by Peter Selinger 2001-2017
</metadata>
<g transform="translate(0.000000,1120.000000) scale(0.100000,-0.100000)"
fill="#000000" stroke="none">
<path d="M5398 11045 c-3 -3 -37 -8 -74 -10 -38 -3 -88 -7 -111 -10 -24 -3
-64 -8 -90 -11 -27 -3 -59 -7 -72 -9 -22 -4 -102 -17 -126 -20 -5 -1 -12 -3
-15 -4 -3 -2 -14 -4 -25 -6 -71 -10 -101 -17 -193 -39 -94 -24 -183 -49 -222
-63 -8 -4 -21 -7 -28 -9 -8 -1 -21 -6 -30 -10 -9 -4 -23 -8 -29 -10 -31 -6
-230 -85 -265 -104 -10 -6 -25 -10 -33 -10 -8 0 -15 -5 -15 -12 0 -6 -3 -9 -6
-5 -3 3 -65 -25 -138 -62 -460 -239 -804 -528 -1118 -942 -32 -41 -58 -79 -58
-83 0 -4 -6 -13 -12 -20 -7 -8 -19 -22 -25 -32 -7 -11 -24 -36 -37 -56 -13
-20 -32 -52 -41 -72 -10 -20 -21 -36 -26 -36 -5 0 -9 -5 -9 -10 0 -6 -24 -54
-53 -108 -48 -89 -83 -162 -122 -255 -8 -20 -15 -39 -16 -42 0 -2 -11 -30 -25
-60 -20 -46 -77 -200 -74 -200 1 0 -1 -7 -4 -15 -17 -55 -49 -165 -61 -210
-18 -72 -27 -111 -30 -126 -2 -11 -4 -20 -5 -21 -4 -5 -21 -89 -26 -128 -1
-11 -3 -20 -4 -20 -1 0 -4 -13 -6 -30 -2 -16 -7 -46 -11 -65 -3 -19 -7 -44 -8
-55 -1 -11 -5 -37 -9 -59 -3 -21 -9 -66 -12 -100 -3 -33 -7 -72 -9 -85 -19
-112 -27 -607 -12 -711 4 -30 9 -71 12 -90 2 -19 6 -46 9 -60 3 -14 9 -41 12
-60 4 -19 18 -80 32 -135 13 -55 26 -107 27 -115 1 -8 5 -22 8 -30 6 -16 39
-128 43 -145 2 -12 52 -164 61 -185 3 -8 7 -21 9 -27 3 -15 35 -104 101 -278
46 -123 48 -128 82 -207 12 -26 21 -49 21 -52 0 -9 179 -423 214 -495 17 -36
33 -69 34 -74 1 -8 26 -60 119 -257 53 -109 341 -688 407 -815 17 -33 34 -61
39 -63 4 -2 7 -11 7 -21 0 -9 4 -21 9 -27 8 -8 41 -68 125 -229 17 -33 36 -63
41 -67 6 -4 7 -8 3 -8 -3 0 18 -43 48 -96 30 -53 54 -97 54 -99 0 -1 25 -46
55 -99 30 -53 51 -96 47 -96 -4 0 -2 -4 4 -8 6 -4 29 -41 51 -82 22 -41 55
-99 72 -128 17 -29 31 -54 31 -56 0 -2 23 -43 51 -92 29 -49 63 -109 77 -134
13 -25 40 -70 58 -101 19 -31 34 -62 34 -68 0 -6 4 -11 9 -11 5 0 14 -12 20
-27 12 -31 71 -135 80 -143 3 -3 14 -21 25 -40 38 -71 70 -126 102 -177 19
-29 31 -53 28 -53 -2 0 0 -6 6 -12 12 -14 175 -283 187 -308 4 -8 38 -67 76
-130 39 -63 77 -127 86 -142 9 -15 39 -64 66 -110 28 -45 52 -87 54 -93 2 -5
7 -12 10 -15 6 -4 34 -49 81 -129 13 -23 97 -159 133 -215 74 -118 97 -158 97
-165 0 -5 3 -11 8 -13 7 -3 92 -135 92 -144 0 -3 5 -10 11 -17 26 -30 96 -146
91 -151 -3 -3 -1 -6 4 -6 5 0 18 -15 28 -32 10 -18 33 -55 51 -83 18 -27 54
-84 80 -125 82 -127 62 -135 194 74 137 216 111 175 262 416 67 107 137 218
154 245 86 136 195 318 195 326 0 5 4 9 10 9 5 0 12 11 16 25 3 14 9 25 13 25
3 0 15 17 26 38 10 20 28 50 40 67 25 37 42 64 54 90 5 11 20 36 33 55 13 19
35 55 48 80 14 25 28 47 32 50 4 3 14 22 23 43 8 20 20 37 25 37 6 0 10 6 10
13 0 7 16 36 35 65 20 28 32 52 29 52 -4 0 0 8 8 18 9 9 25 33 36 53 41 73 47
84 53 89 3 3 12 19 21 35 8 17 39 71 68 120 29 50 64 110 78 135 14 25 33 57
43 72 11 14 19 29 19 32 0 3 19 38 43 78 24 40 46 80 50 88 4 8 21 38 37 65
17 28 36 61 43 75 6 14 14 27 18 30 3 3 12 19 21 35 15 31 29 55 130 233 32
57 58 107 58 112 0 5 3 10 8 12 4 2 23 35 42 73 19 39 37 72 40 75 3 3 12 19
20 35 8 17 17 32 20 35 3 3 20 34 39 70 18 36 44 85 58 110 28 51 126 237 220
415 119 227 499 996 495 1002 -1 2 12 29 27 60 37 75 196 438 251 573 24 58
49 119 56 135 91 211 273 765 301 914 2 14 6 28 8 31 2 4 7 22 10 41 3 19 11
54 16 79 6 25 13 61 15 80 3 19 7 46 9 60 24 123 24 593 0 730 -2 14 -7 54
-10 90 -9 94 -14 142 -19 165 -2 11 -7 45 -11 75 -8 60 -13 85 -15 85 -1 0 -3
9 -5 20 -2 11 -7 36 -11 55 -3 19 -8 44 -9 55 -2 11 -13 58 -25 105 -12 47
-24 94 -26 105 -12 61 -92 303 -107 323 -5 6 -7 12 -3 12 5 0 -18 64 -50 138
-8 17 -21 49 -30 70 -48 110 -166 335 -192 365 -8 9 -12 17 -9 17 8 0 -143
224 -154 228 -5 2 -9 8 -9 13 0 36 -362 429 -481 524 -28 22 -58 47 -67 56
-41 38 -247 183 -357 251 -40 25 -133 76 -230 127 -92 49 -360 164 -410 176
-5 1 -19 5 -30 9 -50 19 -190 61 -234 71 -9 2 -31 8 -49 14 -18 5 -35 10 -37
10 -3 1 -6 1 -7 2 -12 3 -100 21 -123 24 -11 2 -20 4 -20 5 0 1 -11 4 -25 6
-86 16 -149 26 -177 30 -18 2 -50 6 -70 9 -196 25 -596 40 -655 24 -15 -4 -28
-3 -30 2 -2 6 -6 7 -10 4z m462 -2399 c87 -21 98 -24 123 -31 80 -24 248 -109
332 -168 92 -66 227 -203 295 -301 30 -43 55 -81 55 -84 0 -4 8 -18 17 -32 33
-50 108 -258 123 -340 27 -155 23 -392 -8 -495 -4 -11 -8 -33 -11 -49 -16 -91
-117 -301 -199 -414 -44 -60 -224 -240 -248 -247 -10 -4 -19 -11 -19 -16 0 -5
-6 -9 -14 -9 -8 0 -16 -3 -18 -7 -16 -38 -300 -165 -395 -178 -12 -2 -25 -5
-30 -8 -12 -8 -163 -25 -248 -28 -13 -1 -164 11 -190 15 -45 7 -102 18 -125
25 -14 5 -43 14 -65 20 -45 14 -53 17 -150 61 -38 18 -88 45 -111 61 -24 16
-47 29 -53 29 -6 0 -11 4 -11 8 0 4 -13 15 -29 25 -38 22 -190 171 -227 222
-16 22 -31 42 -34 45 -13 12 -71 111 -103 175 -33 67 -82 202 -92 255 -23 121
-26 153 -27 275 0 133 9 209 34 300 6 22 13 48 15 58 6 35 86 217 94 217 5 0
9 6 9 14 0 24 85 145 153 218 20 22 37 44 37 49 0 5 3 9 8 9 4 0 26 17 48 38
71 64 94 82 104 82 6 0 10 5 10 10 0 6 7 10 15 10 8 0 15 4 15 9 0 5 55 36
123 69 116 58 248 103 347 117 25 4 47 8 49 11 11 11 342 -5 401 -20z"/>
</g>
</svg>
